<?xml version="1.0" standalone="no"?>
<!DOCTYPE svg PUBLIC "-//W3C//DTD SVG 20010904//EN"
 "http://www.w3.org/TR/2001/REC-SVG-20010904/DTD/svg10.dtd">
<svg version="1.0" xmlns="http://www.w3.org/2000/svg"
 width="300.000000pt" height="281.000000pt" viewBox="0 0 300.000000 281.000000"
 preserveAspectRatio="xMidYMid meet">
<metadata>
Created by potrace 1.10, written by Peter Selinger 2001-2011
</metadata>
<g transform="translate(0.000000,281.000000) scale(0.100000,-0.100000)"
fill="#000000" stroke="none">
<path d="M0 2744 c0 -41 4 -63 10 -59 5 3 10 28 10 56 l0 49 49 0 c28 0 53 5
56 10 4 6 -18 10 -59 10 l-66 0 0 -66z"/>
<path d="M235 2800 c8 -12 1081 -12 1110 0 11 5 -222 9 -548 9 -376 1 -566 -2
-562 -9z"/>
<path d="M1289 2760 c-80 -26 -163 -56 -185 -67 -21 -11 -47 -18 -57 -15 -10
2 -20 -4 -25 -16 -4 -11 -44 -46 -89 -79 -44 -32 -127 -93 -183 -136 -87 -67
-100 -81 -94 -100 3 -12 7 -23 8 -23 0 -1 33 4 71 12 39 7 75 13 80 14 15 0 6
-131 -11 -147 -31 -32 -11 -167 33 -215 32 -36 94 -12 118 45 12 30 11 33 -26
76 -21 24 -39 52 -39 61 0 10 -7 24 -16 31 -13 11 -15 27 -11 82 2 37 6 69 8
71 2 2 16 6 32 10 23 5 27 3 27 -16 0 -13 9 -42 20 -65 19 -43 19 -43 74 -43
189 0 385 91 428 198 22 56 37 126 30 139 -5 7 -32 31 -60 53 l-53 39 102 68
c78 52 97 69 81 71 -12 2 -32 -6 -44 -18 -13 -12 -40 -30 -61 -41 -20 -11 -52
-34 -70 -52 -19 -18 -48 -43 -66 -57 -18 -14 -72 -57 -119 -95 -110 -88 -152
-120 -174 -128 -10 -3 -18 -11 -18 -16 0 -22 19 -19 48 7 40 35 96 81 213 175
92 72 98 75 113 58 21 -23 20 -56 -5 -111 -37 -81 -94 -121 -126 -89 -8 8 -32
9 -75 3 -34 -4 -55 -9 -46 -11 9 -3 19 -14 21 -26 4 -22 4 -22 6 -1 1 21 43
43 49 25 1 -4 13 -6 26 -4 21 4 23 2 19 -21 -4 -17 -12 -26 -24 -26 -11 0 -19
5 -19 12 0 7 -6 6 -17 -3 -23 -18 -51 -18 -63 1 -9 13 -10 13 -10 -1 0 -10
-10 -15 -32 -16 -67 -1 -88 -3 -88 -10 0 -5 30 -7 67 -6 56 2 63 1 43 -8 -14
-6 -49 -13 -78 -15 -44 -4 -56 -2 -67 13 -16 22 -11 33 16 33 10 0 19 5 19 11
0 10 -31 7 -82 -7 -10 -3 -18 -1 -18 4 0 5 19 15 42 22 24 6 53 21 67 31 13
10 29 19 35 19 6 0 38 23 71 51 95 80 203 161 303 228 52 35 91 65 88 68 -9 9
-202 -125 -340 -235 -71 -57 -148 -113 -170 -124 -46 -23 -96 -39 -96 -31 0
22 63 80 135 123 84 51 106 80 70 94 -43 16 -6 37 175 99 113 38 204 77 180
76 -8 0 -80 -22 -161 -49z m-255 -149 c3 -5 -15 -21 -41 -37 -80 -45 -120 -82
-141 -127 -20 -43 -21 -44 -88 -54 -75 -11 -76 -14 17 54 24 18 87 64 139 103
99 72 105 76 114 61z m66 0 c0 -5 -36 -31 -81 -58 -45 -26 -94 -63 -110 -81
-36 -41 -62 -128 -63 -213 -1 -37 -4 -62 -8 -55 -21 32 2 189 35 249 15 26 49
57 103 93 45 30 86 54 93 54 6 0 11 5 11 10 0 6 5 10 10 10 6 0 10 -4 10 -9z
m328 -54 c-23 -107 -69 -160 -177 -210 -103 -46 -279 -75 -296 -47 -4 6 7 10
25 10 55 0 182 31 245 59 105 48 162 115 180 214 6 29 10 35 20 27 9 -8 10
-21 3 -53z m14 -86 c-5 -3 -17 -20 -26 -38 -9 -17 -25 -38 -36 -46 -11 -7 -17
-17 -13 -20 3 -4 2 -7 -4 -7 -20 0 -22 14 -4 26 10 8 32 34 47 58 16 25 32 42
37 39 5 -3 5 -8 -1 -12z m-613 -95 c-2 -2 -28 -7 -57 -10 -30 -3 -58 -9 -63
-12 -5 -3 -9 -1 -9 5 0 5 28 13 63 18 59 9 76 8 66 -1z m1 -186 c0 -5 9 -10
20 -10 11 0 20 -4 20 -9 0 -13 -27 -21 -45 -15 -17 7 -21 44 -5 44 6 0 10 -4
10 -10z m-8 -63 c-1 -8 2 -18 8 -22 5 -3 10 3 10 13 0 11 8 22 18 24 22 6 97
-76 88 -97 -10 -26 -24 -16 -49 35 -13 27 -27 47 -30 44 -8 -8 9 -51 34 -86
16 -22 19 -32 10 -41 -9 -9 -18 -4 -36 18 -27 34 -34 22 -8 -14 12 -18 13 -23
2 -19 -8 2 -26 28 -41 58 -29 56 -38 115 -15 107 6 -2 11 -11 9 -20z"/>
<path d="M1595 2800 c-4 -7 180 -10 544 -10 361 0 551 3 551 10 0 7 -188 10
-544 10 -353 0 -547 -4 -551 -10z"/>
<path d="M2730 2804 c-8 -4 -28 -19 -45 -34 -16 -15 -42 -30 -57 -34 -20 -5
-28 -13 -28 -29 0 -14 -14 -33 -38 -52 -127 -101 -460 -438 -571 -579 -37 -47
-76 -163 -93 -280 -16 -113 -12 -118 83 -87 168 54 180 63 410 291 283 281
449 436 477 444 12 4 22 14 22 21 0 8 13 29 29 47 77 89 79 144 7 226 -41 47
-151 83 -196 66z m118 -40 c101 -50 129 -134 71 -214 l-32 -43 -76 80 c-42 43
-91 92 -110 107 l-34 27 24 26 c47 50 84 54 157 17z m-87 -163 c60 -60 109
-114 109 -120 0 -25 -28 -6 -121 86 -55 54 -106 101 -114 106 -20 11 -19 37 1
37 9 0 65 -49 125 -109z m-117 30 l28 -29 -48 -43 c-134 -121 -415 -393 -482
-466 -75 -82 -76 -83 -96 -64 -12 10 -28 21 -36 23 -10 4 83 103 287 307 167
165 307 301 311 301 5 0 21 -13 36 -29z m81 -71 l29 -30 -89 -82 c-50 -45
-185 -179 -302 -297 -174 -177 -213 -212 -219 -197 -4 10 -19 23 -35 30 l-27
12 107 114 c96 102 110 113 125 101 12 -11 19 -11 31 -1 8 6 20 8 26 4 8 -5
10 -2 7 8 -4 8 -2 21 3 29 6 10 9 8 9 -11 0 -20 2 -22 10 -10 30 46 -4 53 -43
8 -21 -23 -31 -28 -39 -20 -9 9 19 41 113 129 68 65 153 146 189 180 36 35 68
63 71 63 3 0 18 -14 34 -30z m75 -74 l29 -23 -131 -119 c-72 -66 -210 -200
-307 -300 l-176 -181 -27 27 -27 28 300 296 c165 163 302 296 305 296 4 0 19
-11 34 -24z m-778 -473 c8 -10 18 -26 22 -37 4 -11 12 -16 22 -12 27 10 54
-12 54 -44 0 -21 5 -30 17 -30 20 0 53 -28 53 -46 0 -11 -99 -66 -137 -76 -7
-2 -20 13 -30 32 -14 27 -44 52 -81 66 -1 1 7 38 19 83 23 82 34 95 61 64z
m-55 -188 c11 -8 26 -28 31 -45 11 -29 10 -30 -29 -41 -21 -7 -41 -10 -44 -8
-7 7 7 109 14 109 4 0 16 -7 28 -15z"/>
<path d="M2315 2348 l-100 -103 103 100 c95 93 107 105 99 105 -1 0 -47 -46
-102 -102z"/>
<path d="M2875 2800 c3 -5 28 -10 54 -10 45 0 48 -2 44 -23 -3 -13 0 -39 5
-58 9 -31 10 -28 11 34 l1 67 -61 0 c-37 0 -58 -4 -54 -10z"/>
<path d="M126 2780 c-54 -27 -64 -37 -93 -94 -17 -33 -26 -67 -27 -98 0 -40 6
-52 37 -87 20 -23 37 -50 37 -61 0 -12 9 -22 24 -26 13 -3 73 -60 136 -130
128 -141 290 -300 429 -421 82 -71 105 -86 170 -107 133 -43 261 -60 276 -36
13 21 -95 297 -124 314 -26 17 -18 -23 19 -95 23 -44 40 -81 38 -83 -1 -1 -19
-9 -39 -18 -22 -10 -42 -29 -50 -47 -8 -17 -18 -31 -24 -31 -14 0 -147 38
-152 44 -10 10 18 44 41 50 19 5 26 14 28 37 2 22 10 34 26 40 13 5 21 5 18 0
-3 -4 14 -25 37 -47 l42 -39 -37 40 -38 41 33 34 c17 19 23 26 11 17 -12 -10
-41 -21 -65 -25 -32 -6 -47 -14 -56 -32 -13 -25 -15 -22 -205 170 -106 107
-239 245 -294 305 l-102 110 30 34 c16 18 33 29 37 25 4 -5 42 -46 85 -91 46
-50 74 -88 70 -95 -4 -6 -3 -8 3 -5 13 8 106 -87 96 -98 -5 -4 -3 -5 3 -2 6 3
57 -41 115 -99 57 -57 100 -104 95 -104 -5 0 -3 -7 4 -15 10 -12 10 -19 2 -27
-20 -20 -13 -32 8 -13 11 10 16 23 13 29 -4 6 -9 22 -11 36 -2 17 -65 88 -190
215 -103 105 -210 214 -237 243 l-49 52 26 27 27 26 73 -79 c40 -43 104 -112
143 -152 62 -64 71 -70 70 -48 -1 17 -39 64 -132 161 -72 75 -134 148 -137
161 -4 14 -14 24 -24 24 -10 0 -29 12 -43 26 -23 26 -98 64 -122 64 -7 -1 -29
-9 -51 -20z m113 -29 c71 -37 71 -37 -45 -155 l-107 -107 -27 26 c-16 15 -30
38 -33 52 -16 83 75 201 156 203 10 0 35 -9 56 -19z m104 -67 c9 -9 -224 -255
-234 -248 -19 12 -4 32 103 141 111 112 119 119 131 107z m35 -379 c90 -96
162 -178 162 -182 -1 -4 5 -10 13 -13 9 -3 68 -56 132 -119 94 -92 113 -115
102 -125 -8 -6 -19 -19 -24 -29 -8 -15 -24 -4 -119 83 -110 101 -225 219 -401
407 l-95 102 29 25 c15 14 30 26 34 26 3 0 78 -79 167 -175z m698 -529 l14
-38 -55 4 c-30 3 -58 8 -62 12 -11 11 55 68 74 64 9 -2 22 -20 29 -42z"/>
<path d="M89 2693 c-13 -16 -12 -17 4 -4 16 13 22 10 60 -25 l42 -39 -40 43
c-44 48 -47 49 -66 25z"/>
<path d="M1506 2576 c8 -21 -23 -137 -45 -167 l-20 -26 152 -6 c226 -8 358
-49 449 -139 21 -21 41 -38 44 -38 13 0 -10 119 -31 165 -29 62 -38 73 -98
118 -58 44 -170 81 -292 96 -126 15 -166 15 -159 -3z m225 -42 c89 -16 213
-70 247 -107 11 -12 30 -41 42 -65 29 -55 16 -75 -28 -44 -68 49 -198 79 -423
98 l-67 5 15 57 c8 31 17 60 20 65 7 12 106 8 194 -9z"/>
<path d="M2977 2551 c-4 -18 -7 -594 -7 -1280 l0 -1246 -1475 0 -1475 0 0
1243 c0 821 -3 1242 -10 1242 -7 0 -10 -423 -10 -1249 l0 -1250 43 -6 c65 -9
2934 -1 2944 8 11 11 16 2463 5 2525 l-8 47 -7 -34z"/>
<path d="M680 2302 c0 -4 22 -29 49 -56 33 -32 51 -44 56 -36 4 7 -10 29 -36
56 -40 40 -69 56 -69 36z"/>
<path d="M1470 2190 l0 -70 -70 0 -70 0 0 -40 0 -40 70 0 70 0 0 -155 0 -155
35 0 35 0 0 155 0 155 70 0 70 0 0 40 0 40 -70 0 -70 0 0 70 0 70 -35 0 -35 0
0 -70z m130 -80 l70 0 0 -30 0 -30 -70 0 -70 0 0 -150 0 -150 -25 0 -25 0 0
150 0 150 -70 0 -70 0 0 30 0 30 70 0 70 0 0 64 c0 59 2 65 23 68 21 3 22 -1
25 -64 l3 -68 69 0z"/>
<path d="M1175 2235 c-5 -2 -35 -9 -66 -15 -92 -18 -93 -20 -75 -126 16 -93
42 -182 57 -199 13 -13 12 -3 -11 126 -11 63 -20 124 -20 135 0 26 44 47 85
42 27 -3 29 -8 66 -153 42 -168 46 -182 83 -280 51 -133 129 -273 187 -334
l23 -24 -39 6 c-89 15 -199 121 -272 264 -42 82 -67 104 -51 45 15 -54 62
-139 113 -204 80 -100 195 -158 314 -158 l56 0 -43 26 c-142 85 -296 415 -372
797 -11 55 -14 59 -35 52z"/>
<path d="M544 2211 c0 -11 13 -29 28 -40 18 -15 25 -28 21 -39 -5 -13 -3 -15
7 -5 8 7 10 19 5 30 -4 10 -9 26 -10 35 -2 22 -4 24 -31 32 -17 5 -21 2 -20
-13z"/>
<path d="M1811 1900 c-67 -138 -167 -306 -226 -381 -42 -53 -54 -79 -39 -79
17 0 145 192 206 310 60 117 121 251 116 256 -2 2 -28 -46 -57 -106z"/>
<path d="M1869 1598 c-79 -116 -160 -188 -219 -196 -43 -6 -48 -22 -7 -22 53
0 86 20 153 94 60 65 131 172 121 182 -3 3 -25 -23 -48 -58z"/>
<path d="M128 1045 l3 -198 102 5 c110 5 143 16 189 65 35 37 48 73 48 135 0
67 -32 122 -90 156 -39 24 -58 27 -150 30 l-105 4 3 -197z m230 136 c72 -37
99 -114 67 -196 -23 -63 -81 -96 -167 -98 -102 -3 -98 -8 -98 148 0 176 2 179
90 172 38 -3 86 -15 108 -26z"/>
<path d="M237 1143 c-13 -15 -17 -38 -17 -100 0 -75 2 -82 26 -97 23 -16 27
-16 62 1 51 25 78 80 63 126 -23 68 -99 108 -134 70z m79 -37 c53 -45 31 -125
-38 -141 l-28 -7 0 86 c0 79 2 86 19 86 11 0 32 -11 47 -24z"/>
<path d="M600 1093 c-29 -81 -61 -170 -71 -196 l-19 -48 62 3 c59 3 62 4 70
33 7 29 9 30 60 29 50 -2 53 -3 62 -33 9 -31 10 -31 72 -31 35 0 64 1 64 3 0
1 -32 88 -69 192 l-69 190 -54 3 -55 3 -53 -148z m148 79 c29 -73 85 -230 93
-254 7 -25 5 -28 -16 -28 -13 0 -37 14 -55 31 -28 28 -36 31 -76 26 -31 -3
-55 -13 -73 -31 -30 -29 -51 -34 -51 -12 0 8 22 74 49 148 36 100 54 136 71
145 30 15 46 8 58 -25z"/>
<path d="M672 1088 c-22 -27 -25 -68 -7 -88 22 -25 46 -25 72 -2 16 14 18 23
11 48 -4 17 -15 38 -25 45 -18 15 -18 19 2 -61 5 -22 3 -26 -17 -25 -30 2 -31
3 -23 48 8 42 3 54 -13 35z"/>
<path d="M964 1045 l61 -196 50 3 50 3 24 90 c13 50 26 97 28 105 3 8 13 -14
23 -50 9 -36 23 -84 29 -107 l12 -43 50 0 c31 0 51 5 54 13 3 11 99 321 111
360 5 16 0 18 -51 15 l-57 -3 -19 -59 c-10 -32 -20 -77 -24 -100 l-5 -41 17
24 c10 14 26 51 36 83 14 46 22 58 38 58 25 0 24 -6 -30 -174 -20 -66 -44
-124 -53 -129 -29 -19 -47 1 -69 75 -38 124 -72 123 -114 -2 -24 -71 -29 -80
-51 -80 -29 0 -30 3 -80 165 -20 66 -39 126 -41 133 -3 7 4 12 20 12 22 0 28
-8 48 -67 21 -66 38 -98 46 -89 2 2 -6 47 -18 100 l-22 96 -62 0 -62 0 61
-195z"/>
<path d="M1111 1172 c-35 -116 -21 -170 14 -59 25 76 39 95 68 90 19 -4 28
-17 46 -74 39 -121 58 -86 22 41 l-18 65 -56 3 -56 3 -20 -69z"/>
<path d="M1600 1228 c0 -6 -29 -91 -65 -189 -36 -97 -65 -180 -65 -183 0 -3
26 -6 59 -6 56 0 58 1 67 31 9 29 12 31 62 33 51 1 53 0 60 -29 8 -29 10 -30
74 -33 l66 -3 -43 113 c-23 62 -55 150 -71 195 l-29 83 -57 0 c-38 0 -58 -4
-58 -12z m109 -73 c8 -22 29 -78 47 -126 48 -125 50 -139 26 -139 -11 0 -34
14 -52 30 -24 23 -42 30 -71 30 -28 0 -47 -8 -72 -30 -45 -39 -70 -40 -61 -2
4 15 10 34 14 42 4 8 20 51 35 95 47 137 53 147 89 143 25 -3 33 -10 45 -43z"/>
<path d="M1666 1079 c4 -19 11 -41 15 -50 7 -14 2 -18 -22 -21 -28 -4 -30 -3
-24 21 3 14 9 36 12 49 4 17 2 21 -11 16 -9 -3 -19 -18 -22 -33 -3 -14 -7 -30
-8 -36 -4 -16 28 -45 50 -45 50 0 66 77 23 116 -19 17 -19 16 -13 -17z"/>
<path d="M1946 1193 c-3 -27 -10 -104 -16 -173 -6 -69 -13 -135 -15 -148 -5
-22 -4 -23 62 -20 l68 3 3 73 c2 57 0 73 -10 70 -7 -3 -14 -18 -16 -34 -6 -63
-11 -74 -39 -74 l-26 0 7 132 c8 149 12 174 31 182 31 11 55 -8 89 -74 61
-116 82 -118 143 -10 43 75 81 106 105 82 10 -10 27 -164 28 -254 0 -55 -1
-58 -24 -58 -26 0 -36 16 -36 60 0 35 -9 60 -21 60 -6 0 -9 -34 -7 -77 l3 -78
63 -3 62 -3 0 33 c0 18 -7 101 -15 183 -8 83 -15 156 -15 163 0 8 -18 12 -58
12 l-58 0 -42 -83 c-23 -45 -42 -88 -42 -95 0 -30 -18 -4 -59 83 l-44 95 -57
0 -58 0 -6 -47z"/>
<path d="M2492 1091 c3 -166 10 -186 78 -225 44 -26 141 -27 193 -2 72 35 82
61 85 229 l4 147 -66 0 -66 0 0 -130 c0 -127 0 -130 -25 -146 -23 -15 -27 -15
-50 0 -25 16 -25 19 -25 146 l0 130 -66 0 -65 0 3 -149z m90 95 c4 -6 8 -53 8
-104 0 -104 7 -125 50 -147 26 -14 33 -14 58 -1 47 24 52 37 54 142 1 54 4
105 6 112 7 19 52 15 53 -5 3 -89 -4 -230 -12 -245 -42 -79 -217 -76 -260 4
-12 22 -15 241 -3 259 6 10 36 0 46 -15z"/>
<path d="M2070 998 c0 -10 14 -47 32 -83 27 -55 36 -65 58 -65 22 0 31 10 58
65 38 79 43 114 9 74 -12 -15 -30 -40 -39 -58 -9 -17 -22 -31 -28 -31 -6 0
-19 14 -28 31 -9 18 -27 43 -39 58 -18 21 -22 23 -23 9z"/>
<path d="M720 590 l0 -140 90 0 c89 0 90 0 90 25 0 24 -3 25 -60 25 l-60 0 0
115 0 115 -30 0 -30 0 0 -140z"/>
<path d="M945 590 l0 -140 28 0 27 0 0 140 0 140 -27 0 -28 0 0 -140z"/>
<path d="M1070 589 l0 -141 84 3 c101 5 126 21 126 80 0 36 -20 69 -42 69 -6
0 -3 9 6 19 11 12 16 31 14 52 -4 44 -34 59 -120 59 l-68 0 0 -141z m128 92
c8 -4 12 -19 10 -32 -2 -20 -9 -24 -45 -27 l-43 -3 0 35 c0 34 2 36 33 36 17
0 38 -4 45 -9z m22 -115 c6 -8 10 -25 8 -38 -2 -19 -10 -24 -51 -28 -26 -4
-50 -4 -52 -1 -3 2 -5 22 -5 43 l0 38 44 0 c26 0 48 -6 56 -14z"/>
<path d="M1340 601 c0 -72 -1 -134 -2 -138 -2 -5 9 -9 25 -11 27 -3 27 -3 27
57 0 58 1 61 24 61 30 0 45 -18 61 -72 10 -35 17 -44 39 -46 14 -2 26 1 26 6
0 20 -31 97 -46 113 -13 15 -12 18 11 33 18 12 25 25 25 50 0 52 -28 70 -116
74 l-74 4 0 -131z m128 73 c15 -4 16 -36 0 -52 -7 -7 -27 -12 -45 -12 -32 0
-33 1 -33 40 0 39 0 39 33 34 17 -3 38 -7 45 -10z"/>
<path d="M1611 603 c-24 -70 -46 -134 -48 -140 -4 -9 5 -13 24 -13 25 0 32 5
39 33 9 30 13 32 61 35 51 3 51 3 63 -33 10 -29 16 -35 41 -35 16 0 29 1 29 3
0 1 -22 63 -49 137 l-48 135 -34 3 -34 3 -44 -128z m102 5 l16 -48 -41 0 c-30
0 -39 3 -35 14 3 8 11 33 18 55 14 48 20 45 42 -21z"/>
<path d="M1860 591 l0 -141 25 0 c24 0 25 3 25 60 0 57 1 60 24 60 30 0 45
-18 61 -72 10 -37 16 -43 43 -46 l31 -3 -21 53 c-11 29 -26 60 -34 69 -13 14
-12 18 11 33 18 12 25 25 25 50 0 52 -28 70 -116 74 l-74 4 0 -141z m128 83
c15 -4 16 -36 0 -52 -7 -7 -27 -12 -45 -12 -32 0 -33 1 -33 40 0 39 0 39 33
34 17 -3 38 -7 45 -10z"/>
<path d="M2080 725 c0 -3 20 -40 45 -83 39 -67 45 -84 45 -134 0 -58 0 -58 31
-58 l30 0 -2 58 c-2 52 2 64 45 135 25 43 46 81 46 83 0 2 -13 4 -29 4 -25 0
-33 -8 -57 -55 -16 -30 -31 -55 -34 -55 -3 0 -18 25 -35 55 -25 46 -34 55 -57
55 -15 0 -28 -2 -28 -5z"/>
<path d="M114 328 c-3 -5 2 -11 10 -14 11 -4 16 -19 16 -45 0 -28 4 -39 15
-39 11 0 15 11 15 40 0 22 5 40 10 40 6 0 10 6 10 13 0 14 -68 19 -76 5z"/>
<path d="M218 285 c-2 -39 1 -55 10 -55 6 0 12 10 13 23 l0 22 16 -22 c19 -29
49 -32 34 -5 -6 10 -7 29 -4 42 7 25 -17 50 -48 50 -14 0 -18 -11 -21 -55z"/>
<path d="M343 323 c-3 -10 -12 -33 -19 -52 -17 -41 -17 -41 0 -41 8 0 16 6 19
13 3 9 9 9 27 -1 31 -19 34 -11 13 47 -19 54 -30 63 -40 34z"/>
<path d="M427 334 c-4 -4 -7 -29 -7 -56 0 -36 4 -48 15 -48 10 0 15 10 15 28
l1 27 15 -27 c24 -45 40 -35 38 24 -2 54 -24 83 -24 31 l0 -28 -23 28 c-12 16
-26 25 -30 21z"/>
<path d="M545 326 c-22 -16 -14 -46 15 -53 27 -7 26 -25 -2 -21 -11 2 -23 -3
-26 -10 -3 -10 5 -13 29 -10 29 2 35 7 37 31 3 21 -1 27 -17 27 -11 0 -23 5
-26 10 -4 6 5 10 19 10 29 0 35 15 10 24 -20 8 -17 8 -39 -8z"/>
<path d="M630 283 c0 -42 3 -53 16 -53 11 0 15 6 11 20 -4 15 0 20 14 20 10 0
19 5 19 10 0 6 -9 10 -20 10 -11 0 -20 5 -20 10 0 6 11 10 25 10 15 0 25 6 25
15 0 10 -10 14 -35 13 l-35 -1 0 -54z"/>
<path d="M735 324 c-36 -36 1 -114 43 -88 24 16 28 75 6 91 -23 17 -29 16 -49
-3z m40 -24 c8 -13 -4 -50 -16 -50 -5 0 -9 14 -9 30 0 30 13 40 25 20z"/>
<path d="M830 285 c0 -30 5 -55 10 -55 6 0 10 10 11 23 l0 22 16 -22 c19 -29
49 -32 34 -5 -6 10 -7 29 -4 42 7 25 -17 50 -49 50 -15 0 -18 -9 -18 -55z"/>
<path d="M930 285 c0 -44 3 -55 16 -55 11 0 15 6 11 19 -3 15 1 18 19 17 16
-1 24 -7 24 -18 0 -10 7 -18 16 -18 12 0 14 10 12 52 -3 59 -19 71 -37 31
l-13 -28 -14 28 c-22 42 -34 32 -34 -28z"/>
<path d="M1060 285 c0 -30 5 -55 10 -55 6 0 10 25 10 55 0 30 -4 55 -10 55 -5
0 -10 -25 -10 -55z"/>
<path d="M1117 334 c-4 -4 -7 -29 -7 -56 0 -36 4 -48 15 -48 10 0 15 10 15 28
l1 27 15 -27 c23 -43 34 -34 34 27 0 30 -4 55 -10 55 -5 0 -10 -12 -10 -27 l0
-28 -23 28 c-12 16 -26 25 -30 21z"/>
<path d="M1236 327 c-22 -16 -18 -75 7 -91 22 -14 51 3 55 33 3 16 -2 21 -18
21 -17 0 -20 -4 -15 -21 5 -16 3 -20 -6 -17 -8 3 -14 16 -14 29 0 20 4 24 28
21 31 -3 36 13 8 28 -24 13 -24 13 -45 -3z"/>
<path d="M1370 284 l0 -55 33 3 c31 3 32 5 34 51 2 31 -2 47 -10 48 -7 0 -22
2 -34 5 -22 4 -23 1 -23 -52z"/>
<path d="M1486 327 c-22 -16 -18 -75 7 -91 41 -26 78 52 42 88 -20 19 -26 20
-49 3z m34 -47 c0 -16 -5 -30 -10 -30 -14 0 -24 26 -16 45 10 26 26 16 26 -15z"/>
<path d="M1575 318 c4 -13 9 -38 12 -55 6 -41 33 -45 33 -5 0 15 7 36 15 46
19 25 19 36 1 36 -8 0 -18 -10 -22 -22 l-7 -23 -8 23 c-11 30 -34 29 -24 0z"/>
<path d="M1676 325 c-18 -19 -11 -42 15 -50 24 -8 25 -26 2 -22 -10 1 -20 -2
-23 -8 -7 -15 39 -19 56 -5 22 19 17 39 -13 51 -19 8 -23 13 -13 16 46 14 45
13 30 23 -21 14 -36 12 -54 -5z"/>
<path d="M1809 336 c-8 -8 3 -106 12 -106 5 0 9 25 9 55 0 48 -7 65 -21 51z"/>
<path d="M1867 334 c-4 -4 -7 -29 -7 -56 0 -36 4 -48 15 -48 10 0 15 10 15 28
l1 27 15 -27 c23 -43 34 -34 34 27 0 30 -4 55 -10 55 -5 0 -10 -12 -10 -27 l0
-28 -23 28 c-12 16 -26 25 -30 21z"/>
<path d="M1970 323 c0 -7 5 -13 10 -13 6 0 10 -18 10 -40 0 -29 4 -40 15 -40
11 0 15 11 15 40 0 22 5 40 10 40 6 0 10 6 10 13 0 8 -13 13 -35 13 -22 0 -35
-5 -35 -13z"/>
<path d="M2077 322 c-35 -39 -10 -100 36 -88 24 6 27 11 27 46 0 29 -5 42 -19
50 -25 13 -25 13 -44 -8z m38 -40 c0 -31 -19 -28 -23 4 -3 18 0 25 10 22 7 -3
13 -14 13 -26z"/>
<path d="M2210 285 l0 -55 36 0 c24 0 34 4 31 13 -2 6 -11 11 -21 9 -13 -2
-16 6 -16 43 0 33 -4 45 -15 45 -12 0 -15 -13 -15 -55z"/>
<path d="M2305 331 c-3 -2 -5 -26 -5 -53 l0 -48 35 0 c19 0 35 5 35 10 0 6 -9
10 -20 10 -11 0 -20 5 -20 10 0 6 9 10 20 10 11 0 20 5 20 10 0 6 -9 10 -20
10 -27 0 -25 18 3 22 31 4 18 23 -16 23 -15 1 -30 -1 -32 -4z"/>
<path d="M2423 323 c-3 -10 -12 -33 -19 -52 -17 -41 -17 -41 0 -41 8 0 16 6
19 13 3 9 9 9 27 -1 31 -19 34 -11 13 47 -19 54 -30 63 -40 34z"/>
<path d="M2507 333 c-4 -3 -7 -28 -7 -55 0 -46 1 -48 28 -48 37 0 52 17 52 57
0 27 -5 35 -26 43 -30 12 -38 12 -47 3z m48 -53 c0 -13 -6 -25 -12 -27 -9 -3
-13 6 -13 27 0 21 4 30 13 28 6 -3 12 -15 12 -28z"/>
<path d="M2610 283 l0 -53 35 0 c19 0 35 5 35 10 0 6 -11 10 -25 10 -14 0 -25
5 -25 10 0 6 9 10 20 10 11 0 20 5 20 10 0 6 -9 10 -20 10 -11 0 -20 5 -20 10
0 6 11 10 25 10 15 0 25 6 25 15 0 10 -10 14 -35 13 l-35 -1 0 -54z"/>
<path d="M2709 336 c0 0 -2 -25 -3 -53 -2 -38 1 -53 10 -53 7 0 15 10 17 23
l4 22 8 -22 c13 -39 31 -26 30 21 0 24 -3 47 -7 51 -5 5 -56 15 -59 11z"/>
<path d="M2816 324 c-22 -22 -20 -33 9 -46 30 -13 33 -31 5 -26 -10 2 -19 -1
-20 -7 -1 -17 46 -17 59 -1 17 21 7 46 -19 46 -11 0 -20 5 -20 10 0 6 9 10 19
10 26 0 35 16 15 24 -24 9 -31 8 -48 -10z"/>
</g>
</svg>
